# xmcd
#
# Track frame offsets: 
#        150
#        14383
#        33083
#        48066
#        65594
#        84586
#        102469
#        119939
#        134078
#        147768
#
# Disc length: 2314 seconds
#
# Revision: 0
# Processed by: cddbd v1.5.2PL0 Copyright (c) Steve Scherf et al.
# Submitted via: ExactAudioCopyFreeDBPlugin 1.0
#
DISCID=8e09080a
DTITLE=Mark Manderville and Raianne Richards - Hard Times and Woes
DYEAR=2014
DGENRE=Country
TTITLE0=hard times and woes
TTITLE1=loose stones in the gravel
TTITLE2=it won't be written on my grave
TTITLE3=one more mile
TTITLE4=every time I step down
TTITLE5=hard times
TTITLE6=last tree standing
TTITLE7=best advice
TTITLE8=line in the sand
TTITLE9=farther along
EXTD=
EXTT0=
EXTT1=
EXTT2=
EXTT3=
EXTT4=
EXTT5=
EXTT6=
EXTT7=
EXTT8=
EXTT9=
PLAYORDER=
